<mxfile host="Electron" agent="Mozilla/5.0 (Macintosh; Intel Mac OS X 10_15_7) AppleWebKit/537.36 (KHTML, like Gecko) draw.io/26.1.1 Chrome/132.0.6834.210 Electron/34.3.3 Safari/537.36" version="26.1.1">
  <diagram id="0ZPUBvRterB8NBfWcnP3" name="v1_23062025">
    <mxGraphModel dx="1406" dy="2080" grid="0" gridSize="10" guides="1" tooltips="1" connect="1" arrows="1" fold="1" page="1" pageScale="1" pageWidth="827" pageHeight="1169" math="0" shadow="0">
      <root>
        <mxCell id="0" />
        <mxCell id="1" parent="0" />
        <mxCell id="uNOO1w_TM_rPwnoATvhB-3" value="Private subnet C" style="points=[[0,0],[0.25,0],[0.5,0],[0.75,0],[1,0],[1,0.25],[1,0.5],[1,0.75],[1,1],[0.75,1],[0.5,1],[0.25,1],[0,1],[0,0.75],[0,0.5],[0,0.25]];outlineConnect=0;gradientColor=none;html=1;whiteSpace=wrap;fontSize=12;fontStyle=0;container=0;pointerEvents=0;collapsible=0;recursiveResize=0;shape=mxgraph.aws4.group;grIcon=mxgraph.aws4.group_security_group;grStroke=0;strokeColor=#00A4A6;fillColor=#E6F6F7;verticalAlign=top;align=left;spacingLeft=30;fontColor=#147EBA;dashed=0;movable=1;resizable=1;rotatable=1;deletable=1;editable=1;locked=0;connectable=1;" parent="1" vertex="1">
          <mxGeometry x="630" y="109.95" width="180" height="219.05" as="geometry" />
        </mxCell>
        <mxCell id="uNOO1w_TM_rPwnoATvhB-4" value="Private subnet B" style="points=[[0,0],[0.25,0],[0.5,0],[0.75,0],[1,0],[1,0.25],[1,0.5],[1,0.75],[1,1],[0.75,1],[0.5,1],[0.25,1],[0,1],[0,0.75],[0,0.5],[0,0.25]];outlineConnect=0;gradientColor=none;html=1;whiteSpace=wrap;fontSize=12;fontStyle=0;container=0;pointerEvents=0;collapsible=0;recursiveResize=0;shape=mxgraph.aws4.group;grIcon=mxgraph.aws4.group_security_group;grStroke=0;strokeColor=#00A4A6;fillColor=#E6F6F7;verticalAlign=top;align=left;spacingLeft=30;fontColor=#147EBA;dashed=0;movable=1;resizable=1;rotatable=1;deletable=1;editable=1;locked=0;connectable=1;" parent="1" vertex="1">
          <mxGeometry x="442.08" y="109.95" width="180" height="219.05" as="geometry" />
        </mxCell>
        <mxCell id="uNOO1w_TM_rPwnoATvhB-6" value="AWS Region - Frankfurt eu-central-1" style="points=[[0,0],[0.25,0],[0.5,0],[0.75,0],[1,0],[1,0.25],[1,0.5],[1,0.75],[1,1],[0.75,1],[0.5,1],[0.25,1],[0,1],[0,0.75],[0,0.5],[0,0.25]];outlineConnect=0;gradientColor=none;html=1;whiteSpace=wrap;fontSize=12;fontStyle=0;container=0;pointerEvents=0;collapsible=0;recursiveResize=0;shape=mxgraph.aws4.group;grIcon=mxgraph.aws4.group_region;strokeColor=#00A4A6;fillColor=none;verticalAlign=top;align=left;spacingLeft=30;fontColor=#147EBA;dashed=1;" parent="1" vertex="1">
          <mxGeometry x="80" y="-158" width="862" height="531" as="geometry" />
        </mxCell>
        <mxCell id="uNOO1w_TM_rPwnoATvhB-15" value="VPC" style="points=[[0,0],[0.25,0],[0.5,0],[0.75,0],[1,0],[1,0.25],[1,0.5],[1,0.75],[1,1],[0.75,1],[0.5,1],[0.25,1],[0,1],[0,0.75],[0,0.5],[0,0.25]];outlineConnect=0;gradientColor=none;html=1;whiteSpace=wrap;fontSize=12;fontStyle=0;container=0;pointerEvents=0;collapsible=0;recursiveResize=0;shape=mxgraph.aws4.group;grIcon=mxgraph.aws4.group_vpc2;strokeColor=#8C4FFF;fillColor=none;verticalAlign=top;align=left;spacingLeft=30;fontColor=#AAB7B8;dashed=0;" parent="1" vertex="1">
          <mxGeometry x="230" y="-120" width="634" height="469" as="geometry" />
        </mxCell>
        <mxCell id="uNOO1w_TM_rPwnoATvhB-21" value="Public subnet A" style="points=[[0,0],[0.25,0],[0.5,0],[0.75,0],[1,0],[1,0.25],[1,0.5],[1,0.75],[1,1],[0.75,1],[0.5,1],[0.25,1],[0,1],[0,0.75],[0,0.5],[0,0.25]];outlineConnect=0;gradientColor=none;html=1;whiteSpace=wrap;fontSize=12;fontStyle=0;container=0;pointerEvents=0;collapsible=0;recursiveResize=0;shape=mxgraph.aws4.group;grIcon=mxgraph.aws4.group_security_group;grStroke=0;strokeColor=#7AA116;fillColor=#F2F6E8;verticalAlign=top;align=left;spacingLeft=30;fontColor=#248814;dashed=0;" parent="1" vertex="1">
          <mxGeometry x="250" y="-78" width="180" height="180.33" as="geometry" />
        </mxCell>
        <mxCell id="uNOO1w_TM_rPwnoATvhB-22" value="Private subnet A" style="points=[[0,0],[0.25,0],[0.5,0],[0.75,0],[1,0],[1,0.25],[1,0.5],[1,0.75],[1,1],[0.75,1],[0.5,1],[0.25,1],[0,1],[0,0.75],[0,0.5],[0,0.25]];outlineConnect=0;gradientColor=none;html=1;whiteSpace=wrap;fontSize=12;fontStyle=0;container=0;pointerEvents=0;collapsible=0;recursiveResize=0;shape=mxgraph.aws4.group;grIcon=mxgraph.aws4.group_security_group;grStroke=0;strokeColor=#00A4A6;fillColor=#E6F6F7;verticalAlign=top;align=left;spacingLeft=30;fontColor=#147EBA;dashed=0;movable=1;resizable=1;rotatable=1;deletable=1;editable=1;locked=0;connectable=1;" parent="1" vertex="1">
          <mxGeometry x="250" y="109.95" width="180" height="219.05" as="geometry" />
        </mxCell>
        <mxCell id="uNOO1w_TM_rPwnoATvhB-53" value="Public subnet B" style="points=[[0,0],[0.25,0],[0.5,0],[0.75,0],[1,0],[1,0.25],[1,0.5],[1,0.75],[1,1],[0.75,1],[0.5,1],[0.25,1],[0,1],[0,0.75],[0,0.5],[0,0.25]];outlineConnect=0;gradientColor=none;html=1;whiteSpace=wrap;fontSize=12;fontStyle=0;container=0;pointerEvents=0;collapsible=0;recursiveResize=0;shape=mxgraph.aws4.group;grIcon=mxgraph.aws4.group_security_group;grStroke=0;strokeColor=#7AA116;fillColor=#F2F6E8;verticalAlign=top;align=left;spacingLeft=30;fontColor=#248814;dashed=0;" parent="1" vertex="1">
          <mxGeometry x="442.08" y="-78" width="180" height="180.33" as="geometry" />
        </mxCell>
        <mxCell id="uNOO1w_TM_rPwnoATvhB-57" value="Public subnet C" style="points=[[0,0],[0.25,0],[0.5,0],[0.75,0],[1,0],[1,0.25],[1,0.5],[1,0.75],[1,1],[0.75,1],[0.5,1],[0.25,1],[0,1],[0,0.75],[0,0.5],[0,0.25]];outlineConnect=0;gradientColor=none;html=1;whiteSpace=wrap;fontSize=12;fontStyle=0;container=0;pointerEvents=0;collapsible=0;recursiveResize=0;shape=mxgraph.aws4.group;grIcon=mxgraph.aws4.group_security_group;grStroke=0;strokeColor=#7AA116;fillColor=#F2F6E8;verticalAlign=top;align=left;spacingLeft=30;fontColor=#248814;dashed=0;" parent="1" vertex="1">
          <mxGeometry x="632.08" y="-81" width="180" height="183.33" as="geometry" />
        </mxCell>
        <mxCell id="uNOO1w_TM_rPwnoATvhB-65" value="NAT&lt;br&gt;zone A" style="sketch=0;outlineConnect=0;fontColor=#232F3E;gradientColor=none;fillColor=#8C4FFF;strokeColor=none;dashed=0;verticalLabelPosition=bottom;verticalAlign=top;align=center;html=1;fontSize=12;fontStyle=0;aspect=fixed;pointerEvents=1;shape=mxgraph.aws4.nat_gateway;fontFamily=Helvetica;" parent="1" vertex="1">
          <mxGeometry x="280.05" y="31.869999999999997" width="30" height="30" as="geometry" />
        </mxCell>
        <mxCell id="uNOO1w_TM_rPwnoATvhB-66" value="NAT&lt;br&gt;zone B" style="sketch=0;outlineConnect=0;fontColor=#232F3E;gradientColor=none;fillColor=#8C4FFF;strokeColor=none;dashed=0;verticalLabelPosition=bottom;verticalAlign=top;align=center;html=1;fontSize=12;fontStyle=0;aspect=fixed;pointerEvents=1;shape=mxgraph.aws4.nat_gateway;fontFamily=Helvetica;" parent="1" vertex="1">
          <mxGeometry x="467.13" y="31.869999999999997" width="30" height="30" as="geometry" />
        </mxCell>
        <mxCell id="uNOO1w_TM_rPwnoATvhB-67" value="NAT&lt;br&gt;zone C" style="sketch=0;outlineConnect=0;fontColor=#232F3E;gradientColor=none;fillColor=#8C4FFF;strokeColor=none;dashed=0;verticalLabelPosition=bottom;verticalAlign=top;align=center;html=1;fontSize=12;fontStyle=0;aspect=fixed;pointerEvents=1;shape=mxgraph.aws4.nat_gateway;fontFamily=Helvetica;" parent="1" vertex="1">
          <mxGeometry x="640" y="31.869999999999997" width="30" height="30" as="geometry" />
        </mxCell>
        <mxCell id="Q2d2p3xCa_bUGklNiJ6Z-2" style="edgeStyle=orthogonalEdgeStyle;rounded=0;orthogonalLoop=1;jettySize=auto;html=1;startArrow=classic;startFill=1;" parent="1" source="uNOO1w_TM_rPwnoATvhB-68" target="Q2d2p3xCa_bUGklNiJ6Z-1" edge="1">
          <mxGeometry relative="1" as="geometry">
            <mxPoint x="770" y="-390" as="targetPoint" />
            <Array as="points">
              <mxPoint x="988" y="-120" />
              <mxPoint x="988" y="-120" />
            </Array>
          </mxGeometry>
        </mxCell>
        <mxCell id="uNOO1w_TM_rPwnoATvhB-68" value="Internet &lt;br&gt;Gateway" style="sketch=0;outlineConnect=0;fontColor=#232F3E;gradientColor=none;fillColor=#8C4FFF;strokeColor=none;dashed=0;verticalLabelPosition=bottom;verticalAlign=top;align=center;html=1;fontSize=12;fontStyle=0;aspect=fixed;pointerEvents=1;shape=mxgraph.aws4.internet_gateway;fontFamily=Helvetica;" parent="1" vertex="1">
          <mxGeometry x="810" y="-140" width="40" height="40" as="geometry" />
        </mxCell>
        <mxCell id="uNOO1w_TM_rPwnoATvhB-73" value="" style="swimlane;startSize=0;dashed=1;" parent="1" vertex="1">
          <mxGeometry x="90" y="31.87" width="120" height="251.13" as="geometry" />
        </mxCell>
        <mxCell id="uNOO1w_TM_rPwnoATvhB-79" value="IAM" style="sketch=0;points=[[0,0,0],[0.25,0,0],[0.5,0,0],[0.75,0,0],[1,0,0],[0,1,0],[0.25,1,0],[0.5,1,0],[0.75,1,0],[1,1,0],[0,0.25,0],[0,0.5,0],[0,0.75,0],[1,0.25,0],[1,0.5,0],[1,0.75,0]];outlineConnect=0;fontColor=#232F3E;fillColor=#DD344C;strokeColor=#ffffff;dashed=0;verticalLabelPosition=bottom;verticalAlign=top;align=center;html=1;fontSize=12;fontStyle=0;aspect=fixed;shape=mxgraph.aws4.resourceIcon;resIcon=mxgraph.aws4.identity_and_access_management;" parent="uNOO1w_TM_rPwnoATvhB-73" vertex="1">
          <mxGeometry x="27.5" y="140.13" width="65" height="65" as="geometry" />
        </mxCell>
        <mxCell id="uNOO1w_TM_rPwnoATvhB-81" value="Key Management&amp;nbsp;&lt;div&gt;Service (KMS)&lt;div&gt;&lt;br&gt;&lt;/div&gt;&lt;/div&gt;" style="sketch=0;points=[[0,0,0],[0.25,0,0],[0.5,0,0],[0.75,0,0],[1,0,0],[0,1,0],[0.25,1,0],[0.5,1,0],[0.75,1,0],[1,1,0],[0,0.25,0],[0,0.5,0],[0,0.75,0],[1,0.25,0],[1,0.5,0],[1,0.75,0]];outlineConnect=0;fontColor=#232F3E;fillColor=#DD344C;strokeColor=#ffffff;dashed=0;verticalLabelPosition=bottom;verticalAlign=top;align=center;html=1;fontSize=12;fontStyle=0;aspect=fixed;shape=mxgraph.aws4.resourceIcon;resIcon=mxgraph.aws4.key_management_service;" parent="uNOO1w_TM_rPwnoATvhB-73" vertex="1">
          <mxGeometry x="27.5" y="28.13" width="65" height="65" as="geometry" />
        </mxCell>
        <mxCell id="uNOO1w_TM_rPwnoATvhB-82" value="Security and&amp;nbsp;&lt;div&gt;Management&amp;nbsp;&lt;div&gt;services&lt;/div&gt;&lt;/div&gt;" style="text;html=1;align=center;verticalAlign=middle;resizable=0;points=[];autosize=1;strokeColor=none;fillColor=none;" parent="1" vertex="1">
          <mxGeometry x="100" y="-28.84" width="100" height="60" as="geometry" />
        </mxCell>
        <mxCell id="Q2d2p3xCa_bUGklNiJ6Z-1" value="Internet" style="sketch=0;outlineConnect=0;fontColor=#232F3E;gradientColor=none;fillColor=#232F3D;strokeColor=none;dashed=0;verticalLabelPosition=bottom;verticalAlign=top;align=center;html=1;fontSize=12;fontStyle=0;aspect=fixed;pointerEvents=1;shape=mxgraph.aws4.internet_alt22;" parent="1" vertex="1">
          <mxGeometry x="1020" y="-140" width="48" height="48" as="geometry" />
        </mxCell>
        <mxCell id="DXFknokvm_7I_0Sqrf39-29" value="AWS Account" style="points=[[0,0],[0.25,0],[0.5,0],[0.75,0],[1,0],[1,0.25],[1,0.5],[1,0.75],[1,1],[0.75,1],[0.5,1],[0.25,1],[0,1],[0,0.75],[0,0.5],[0,0.25]];outlineConnect=0;gradientColor=none;html=1;whiteSpace=wrap;fontSize=12;fontStyle=0;container=1;pointerEvents=0;collapsible=0;recursiveResize=0;shape=mxgraph.aws4.group;grIcon=mxgraph.aws4.group_account;strokeColor=#CD2264;fillColor=none;verticalAlign=top;align=left;spacingLeft=30;fontColor=#CD2264;dashed=0;" parent="1" vertex="1">
          <mxGeometry x="56" y="-211" width="917" height="606" as="geometry" />
        </mxCell>
        <mxCell id="uNOO1w_TM_rPwnoATvhB-61" value="" style="swimlane;startSize=0;dashed=1;" parent="DXFknokvm_7I_0Sqrf39-29" vertex="1">
          <mxGeometry x="219" y="378" width="507" height="142" as="geometry" />
        </mxCell>
        <mxCell id="uNOO1w_TM_rPwnoATvhB-62" value="EKS&amp;nbsp;&lt;div&gt;Elastic Kubenetes Service&lt;/div&gt;&lt;div&gt;(private &amp;amp; public only from your IP)&lt;/div&gt;&lt;div&gt;&lt;br&gt;&lt;/div&gt;" style="sketch=0;points=[[0,0,0],[0.25,0,0],[0.5,0,0],[0.75,0,0],[1,0,0],[0,1,0],[0.25,1,0],[0.5,1,0],[0.75,1,0],[1,1,0],[0,0.25,0],[0,0.5,0],[0,0.75,0],[1,0.25,0],[1,0.5,0],[1,0.75,0]];outlineConnect=0;fontColor=#232F3E;fillColor=#ED7100;strokeColor=#ffffff;dashed=0;verticalLabelPosition=bottom;verticalAlign=top;align=center;html=1;fontSize=12;fontStyle=0;aspect=fixed;shape=mxgraph.aws4.resourceIcon;resIcon=mxgraph.aws4.eks;" parent="uNOO1w_TM_rPwnoATvhB-61" vertex="1">
          <mxGeometry x="222.13" y="19" width="65" height="65" as="geometry" />
        </mxCell>
        <mxCell id="EmDwTfTsbvQL-CYzIrfA-10" value="" style="shape=image;editableCssRules=.*;verticalLabelPosition=bottom;labelBackgroundColor=default;verticalAlign=top;aspect=fixed;imageAspect=0;image=data:image/svg+xml,PHN2ZyB4bWxucz0iaHR0cDovL3d3dy53My5vcmcvMjAwMC9zdmciIHZpZXdCb3g9Ii0wLjUgLTAuNSAyOCAyOCIgaGVpZ2h0PSIyOCIgd2lkdGg9IjI4Ij4mI3hhOwkgIDxzdHlsZSB0eXBlPSJ0ZXh0L2NzcyI+LnN0MCB7IHN0b3AtY29sb3I6IHJnYigzNSwgMTQ5LCAyNTUpOyB9IC5zdDEgeyBzdG9wLWNvbG9yOiByZ2IoMCwgODcsIDIxMCk7IH0gPC9zdHlsZT4mI3hhOwk8ZGVmcz4mI3hhOwkJPGxpbmVhckdyYWRpZW50IGdyYWRpZW50VW5pdHM9InVzZXJTcGFjZU9uVXNlIiB5Mj0iMjUuMzA5IiB4Mj0iMjMuNDU0IiB5MT0iMy40NzQiIHgxPSIyLjAzOSIgaWQ9IkEiPiYjeGE7CQkJPHN0b3AgY2xhc3M9InN0MCIvPiYjeGE7CQkJPHN0b3AgY2xhc3M9InN0MSIgb2Zmc2V0PSIxIi8+JiN4YTsJCTwvbGluZWFyR3JhZGllbnQ+JiN4YTsJPC9kZWZzPiYjeGE7CTxwYXRoIGZpbGw9InVybCgjQSkiIGQ9Ik0xNS4yNSAxMy4xNzNhMS43IDEuNyAwIDAgMC0uMTE2LS42OGMtLjA4NS0uMjE2LS4yMTMtLjQxMy0uMzc2LS41NzhzLS4zNjItLjI5MS0uNTc4LS4zNzYtLjQ0OC0uMTI0LS42OC0uMTE2Yy0uMjMyLS4wMDgtLjQ2NC4wMzEtLjY4LjExNnMtLjQxMy4yMTMtLjU3OC4zNzYtLjI5MS4zNjItLjM3Ni41NzhhMS43IDEuNyAwIDAgMC0uMTE2LjY4djdjMCAuNDcyLjE2NS44OTIuNDkyIDEuMjU4LjE2NS4xNjMuMzYyLjI5MS41NzkuMzc1cy40NDguMTIzLjY4LjExNWExLjcgMS43IDAgMCAwIDEuMjU4LS40OWMuMzI3LS4zNjYuNDkyLS43ODQuNDkyLTEuMjZ2LTd6TTEzLjUtLjVjMS45MzIgMCAzLjczNi4zNjYgNS40MTQgMS4wOTQgMS43MTMuNzMgMy4yMDggMS43MzIgNC40ODMgMy4wMDggMS4yODMgMS4yODcgMi4zMDUgMi44MSAzLjAwOCA0LjQ4NS43MyAxLjY3NiAxLjA5NCAzLjQ4MiAxLjA5NCA1LjQxM2ExMy44MiAxMy44MiAwIDAgMS0xLjA5NCA1LjQ2OWMtLjcxMyAxLjY1NC0xLjczNCAzLjE1OC0zLjAwOCA0LjQzMS0xLjI4NiAxLjI4Mi0yLjgwOSAyLjMwMy00LjQ4MyAzLjAwNi0xLjcxLjczNi0zLjU1MyAxLjEwOC01LjQxNCAxLjA5NC0xLjg3OC4wMTEtMy43MzktLjM2MS01LjQ2OS0xLjA5NGExNC4yMyAxNC4yMyAwIDAgMS03LjQzNy03LjQzN0ExMy44MiAxMy44MiAwIDAgMS0uNSAxMy41YzAtMS45MzIuMzY0LTMuNzM2IDEuMDk0LTUuNDEzLjczLTEuNzE1IDEuNzMyLTMuMjA5IDMuMDA4LTQuNDg1UzYuMzc4IDEuMzA3IDguMDMxLjU5NEExMy44MiAxMy44MiAwIDAgMSAxMy41LS41em0wIDkuNzM1YTIuMDEgMi4wMSAwIDAgMCAxLjQ3Ny0uNjAyIDIuMDEgMi4wMSAwIDAgMCAuNjAyLTEuNDc3YzAtLjU4My0uMjAxLTEuMDc0LS42MDItMS40NzUtLjE4NC0uMjEtLjQxMS0uMzc3LS42NjYtLjQ5MXMtLjUzMi0uMTctLjgxMS0uMTY2Yy0uMjc5LS4wMDQtLjU1Ni4wNTItLjgxMS4xNjZzLS40ODIuMjgxLS42NjYuNDkxYy0uNDAxLjQwMS0uNi44OTItLjYgMS40NzVzLjIgMS4wNzYuNiAxLjQ3Ny44OTMuNjAyIDEuNDc3LjYwMnoiLz4mI3hhOzwvc3ZnPg==;" vertex="1" parent="DXFknokvm_7I_0Sqrf39-29">
          <mxGeometry x="256" y="100" width="19" height="19" as="geometry" />
        </mxCell>
        <mxCell id="EmDwTfTsbvQL-CYzIrfA-7" value="You can configure the number of AZs you want to use" style="text;html=1;align=center;verticalAlign=middle;resizable=0;points=[];autosize=1;strokeColor=none;fillColor=none;" vertex="1" parent="DXFknokvm_7I_0Sqrf39-29">
          <mxGeometry x="275" y="96.5" width="302" height="26" as="geometry" />
        </mxCell>
        <mxCell id="EmDwTfTsbvQL-CYzIrfA-1" value="You" style="sketch=0;outlineConnect=0;fontColor=#232F3E;gradientColor=none;fillColor=#232F3D;strokeColor=none;dashed=0;verticalLabelPosition=bottom;verticalAlign=top;align=center;html=1;fontSize=12;fontStyle=0;aspect=fixed;pointerEvents=1;shape=mxgraph.aws4.user;" vertex="1" parent="1">
          <mxGeometry x="502.63" y="-319" width="54" height="54" as="geometry" />
        </mxCell>
        <mxCell id="EmDwTfTsbvQL-CYzIrfA-3" style="edgeStyle=orthogonalEdgeStyle;rounded=0;orthogonalLoop=1;jettySize=auto;html=1;entryX=0.5;entryY=0;entryDx=0;entryDy=0;entryPerimeter=0;" edge="1" parent="1" source="EmDwTfTsbvQL-CYzIrfA-1" target="uNOO1w_TM_rPwnoATvhB-62">
          <mxGeometry relative="1" as="geometry" />
        </mxCell>
        <mxCell id="EmDwTfTsbvQL-CYzIrfA-5" value="The EKS Cluster endpoint will be public but reachable&amp;nbsp;&lt;div&gt;only from your public IP gathered at deploy time&lt;br&gt;&lt;b&gt;(secure and easy setup for development purposes)&lt;/b&gt;&lt;/div&gt;" style="text;html=1;align=center;verticalAlign=middle;resizable=0;points=[];autosize=1;strokeColor=none;fillColor=none;" vertex="1" parent="1">
          <mxGeometry x="133.07999999999998" y="-316" width="309" height="55" as="geometry" />
        </mxCell>
        <mxCell id="EmDwTfTsbvQL-CYzIrfA-6" value="&lt;font face=&quot;Helvetica&quot;&gt;In &lt;b&gt;PRODUCTION&lt;/b&gt; you may want to&amp;nbsp;&amp;nbsp;&lt;span style=&quot;color: rgb(14, 14, 14); background-color: transparent;&quot;&gt;keep the endpoint &lt;/span&gt;&lt;i style=&quot;color: rgb(14, 14, 14); background-color: transparent;&quot;&gt;&lt;b&gt;private&lt;/b&gt;&lt;/i&gt;&lt;span style=&quot;color: rgb(14, 14, 14); background-color: transparent;&quot;&gt;&amp;nbsp;&lt;/span&gt;&lt;/font&gt;&lt;div&gt;&lt;font face=&quot;Helvetica&quot;&gt;&lt;span style=&quot;color: rgb(14, 14, 14); background-color: transparent;&quot;&gt;(or restrict to a small corporate/VPN CIDR)&amp;nbsp;&lt;/span&gt;&lt;/font&gt;&lt;div&gt;&lt;font face=&quot;Helvetica&quot;&gt;&lt;span style=&quot;color: rgb(14, 14, 14); background-color: transparent;&quot;&gt;and reach it via VPN or a hardened bastion host&lt;/span&gt;&lt;/font&gt;&lt;/div&gt;&lt;/div&gt;" style="text;html=1;align=center;verticalAlign=middle;resizable=0;points=[];autosize=1;strokeColor=none;fillColor=none;" vertex="1" parent="1">
          <mxGeometry x="616" y="-316" width="351" height="55" as="geometry" />
        </mxCell>
        <mxCell id="EmDwTfTsbvQL-CYzIrfA-13" value="" style="shape=image;editableCssRules=.*;verticalLabelPosition=bottom;labelBackgroundColor=default;verticalAlign=top;aspect=fixed;imageAspect=0;image=data:image/svg+xml,PHN2ZyB4bWxucz0iaHR0cDovL3d3dy53My5vcmcvMjAwMC9zdmciIHZpZXdCb3g9Ii0wLjUgLTAuNSAyOCAyOCIgaGVpZ2h0PSIyOCIgd2lkdGg9IjI4Ij4mI3hhOwkgIDxzdHlsZSB0eXBlPSJ0ZXh0L2NzcyI+LnN0MCB7IHN0b3AtY29sb3I6IHJnYigzNSwgMTQ5LCAyNTUpOyB9IC5zdDEgeyBzdG9wLWNvbG9yOiByZ2IoMCwgODcsIDIxMCk7IH0gPC9zdHlsZT4mI3hhOwk8ZGVmcz4mI3hhOwkJPGxpbmVhckdyYWRpZW50IGdyYWRpZW50VW5pdHM9InVzZXJTcGFjZU9uVXNlIiB5Mj0iMjUuMzA5IiB4Mj0iMjMuNDU0IiB5MT0iMy40NzQiIHgxPSIyLjAzOSIgaWQ9IkEiPiYjeGE7CQkJPHN0b3AgY2xhc3M9InN0MCIvPiYjeGE7CQkJPHN0b3AgY2xhc3M9InN0MSIgb2Zmc2V0PSIxIi8+JiN4YTsJCTwvbGluZWFyR3JhZGllbnQ+JiN4YTsJPC9kZWZzPiYjeGE7CTxwYXRoIGZpbGw9InVybCgjQSkiIGQ9Ik0xNS4yNSAxMy4xNzNhMS43IDEuNyAwIDAgMC0uMTE2LS42OGMtLjA4NS0uMjE2LS4yMTMtLjQxMy0uMzc2LS41NzhzLS4zNjItLjI5MS0uNTc4LS4zNzYtLjQ0OC0uMTI0LS42OC0uMTE2Yy0uMjMyLS4wMDgtLjQ2NC4wMzEtLjY4LjExNnMtLjQxMy4yMTMtLjU3OC4zNzYtLjI5MS4zNjItLjM3Ni41NzhhMS43IDEuNyAwIDAgMC0uMTE2LjY4djdjMCAuNDcyLjE2NS44OTIuNDkyIDEuMjU4LjE2NS4xNjMuMzYyLjI5MS41NzkuMzc1cy40NDguMTIzLjY4LjExNWExLjcgMS43IDAgMCAwIDEuMjU4LS40OWMuMzI3LS4zNjYuNDkyLS43ODQuNDkyLTEuMjZ2LTd6TTEzLjUtLjVjMS45MzIgMCAzLjczNi4zNjYgNS40MTQgMS4wOTQgMS43MTMuNzMgMy4yMDggMS43MzIgNC40ODMgMy4wMDggMS4yODMgMS4yODcgMi4zMDUgMi44MSAzLjAwOCA0LjQ4NS43MyAxLjY3NiAxLjA5NCAzLjQ4MiAxLjA5NCA1LjQxM2ExMy44MiAxMy44MiAwIDAgMS0xLjA5NCA1LjQ2OWMtLjcxMyAxLjY1NC0xLjczNCAzLjE1OC0zLjAwOCA0LjQzMS0xLjI4NiAxLjI4Mi0yLjgwOSAyLjMwMy00LjQ4MyAzLjAwNi0xLjcxLjczNi0zLjU1MyAxLjEwOC01LjQxNCAxLjA5NC0xLjg3OC4wMTEtMy43MzktLjM2MS01LjQ2OS0xLjA5NGExNC4yMyAxNC4yMyAwIDAgMS03LjQzNy03LjQzN0ExMy44MiAxMy44MiAwIDAgMS0uNSAxMy41YzAtMS45MzIuMzY0LTMuNzM2IDEuMDk0LTUuNDEzLjczLTEuNzE1IDEuNzMyLTMuMjA5IDMuMDA4LTQuNDg1UzYuMzc4IDEuMzA3IDguMDMxLjU5NEExMy44MiAxMy44MiAwIDAgMSAxMy41LS41em0wIDkuNzM1YTIuMDEgMi4wMSAwIDAgMCAxLjQ3Ny0uNjAyIDIuMDEgMi4wMSAwIDAgMCAuNjAyLTEuNDc3YzAtLjU4My0uMjAxLTEuMDc0LS42MDItMS40NzUtLjE4NC0uMjEtLjQxMS0uMzc3LS42NjYtLjQ5MXMtLjUzMi0uMTctLjgxMS0uMTY2Yy0uMjc5LS4wMDQtLjU1Ni4wNTItLjgxMS4xNjZzLS40ODIuMjgxLS42NjYuNDkxYy0uNDAxLjQwMS0uNi44OTItLjYgMS40NzVzLjIgMS4wNzYuNiAxLjQ3Ny44OTMuNjAyIDEuNDc3LjYwMnoiLz4mI3hhOzwvc3ZnPg==;" vertex="1" parent="1">
          <mxGeometry x="118" y="-310" width="19" height="19" as="geometry" />
        </mxCell>
        <mxCell id="EmDwTfTsbvQL-CYzIrfA-14" value="" style="shape=image;editableCssRules=.*;verticalLabelPosition=bottom;labelBackgroundColor=default;verticalAlign=top;aspect=fixed;imageAspect=0;image=data:image/svg+xml,PHN2ZyB4bWxucz0iaHR0cDovL3d3dy53My5vcmcvMjAwMC9zdmciIHZpZXdCb3g9Ii0wLjUgLTAuNSAyOCAyOCIgaGVpZ2h0PSIyOCIgd2lkdGg9IjI4Ij4mI3hhOwkgIDxzdHlsZSB0eXBlPSJ0ZXh0L2NzcyI+LnN0MCB7IHN0b3AtY29sb3I6IHJnYigzNSwgMTQ5LCAyNTUpOyB9IC5zdDEgeyBzdG9wLWNvbG9yOiByZ2IoMCwgODcsIDIxMCk7IH0gPC9zdHlsZT4mI3hhOwk8ZGVmcz4mI3hhOwkJPGxpbmVhckdyYWRpZW50IGdyYWRpZW50VW5pdHM9InVzZXJTcGFjZU9uVXNlIiB5Mj0iMjUuMzA5IiB4Mj0iMjMuNDU0IiB5MT0iMy40NzQiIHgxPSIyLjAzOSIgaWQ9IkEiPiYjeGE7CQkJPHN0b3AgY2xhc3M9InN0MCIvPiYjeGE7CQkJPHN0b3AgY2xhc3M9InN0MSIgb2Zmc2V0PSIxIi8+JiN4YTsJCTwvbGluZWFyR3JhZGllbnQ+JiN4YTsJPC9kZWZzPiYjeGE7CTxwYXRoIGZpbGw9InVybCgjQSkiIGQ9Ik0xNS4yNSAxMy4xNzNhMS43IDEuNyAwIDAgMC0uMTE2LS42OGMtLjA4NS0uMjE2LS4yMTMtLjQxMy0uMzc2LS41NzhzLS4zNjItLjI5MS0uNTc4LS4zNzYtLjQ0OC0uMTI0LS42OC0uMTE2Yy0uMjMyLS4wMDgtLjQ2NC4wMzEtLjY4LjExNnMtLjQxMy4yMTMtLjU3OC4zNzYtLjI5MS4zNjItLjM3Ni41NzhhMS43IDEuNyAwIDAgMC0uMTE2LjY4djdjMCAuNDcyLjE2NS44OTIuNDkyIDEuMjU4LjE2NS4xNjMuMzYyLjI5MS41NzkuMzc1cy40NDguMTIzLjY4LjExNWExLjcgMS43IDAgMCAwIDEuMjU4LS40OWMuMzI3LS4zNjYuNDkyLS43ODQuNDkyLTEuMjZ2LTd6TTEzLjUtLjVjMS45MzIgMCAzLjczNi4zNjYgNS40MTQgMS4wOTQgMS43MTMuNzMgMy4yMDggMS43MzIgNC40ODMgMy4wMDggMS4yODMgMS4yODcgMi4zMDUgMi44MSAzLjAwOCA0LjQ4NS43MyAxLjY3NiAxLjA5NCAzLjQ4MiAxLjA5NCA1LjQxM2ExMy44MiAxMy44MiAwIDAgMS0xLjA5NCA1LjQ2OWMtLjcxMyAxLjY1NC0xLjczNCAzLjE1OC0zLjAwOCA0LjQzMS0xLjI4NiAxLjI4Mi0yLjgwOSAyLjMwMy00LjQ4MyAzLjAwNi0xLjcxLjczNi0zLjU1MyAxLjEwOC01LjQxNCAxLjA5NC0xLjg3OC4wMTEtMy43MzktLjM2MS01LjQ2OS0xLjA5NGExNC4yMyAxNC4yMyAwIDAgMS03LjQzNy03LjQzN0ExMy44MiAxMy44MiAwIDAgMS0uNSAxMy41YzAtMS45MzIuMzY0LTMuNzM2IDEuMDk0LTUuNDEzLjczLTEuNzE1IDEuNzMyLTMuMjA5IDMuMDA4LTQuNDg1UzYuMzc4IDEuMzA3IDguMDMxLjU5NEExMy44MiAxMy44MiAwIDAgMSAxMy41LS41em0wIDkuNzM1YTIuMDEgMi4wMSAwIDAgMCAxLjQ3Ny0uNjAyIDIuMDEgMi4wMSAwIDAgMCAuNjAyLTEuNDc3YzAtLjU4My0uMjAxLTEuMDc0LS42MDItMS40NzUtLjE4NC0uMjEtLjQxMS0uMzc3LS42NjYtLjQ5MXMtLjUzMi0uMTctLjgxMS0uMTY2Yy0uMjc5LS4wMDQtLjU1Ni4wNTItLjgxMS4xNjZzLS40ODIuMjgxLS42NjYuNDkxYy0uNDAxLjQwMS0uNi44OTItLjYgMS40NzVzLjIgMS4wNzYuNiAxLjQ3Ny44OTMuNjAyIDEuNDc3LjYwMnoiLz4mI3hhOzwvc3ZnPg==;" vertex="1" parent="1">
          <mxGeometry x="597" y="-313" width="19" height="19" as="geometry" />
        </mxCell>
      </root>
    </mxGraphModel>
  </diagram>
</mxfile>
